<?xml version="1.0" encoding="UTF-8"?>
<!DOCTYPE svg PUBLIC "-//W3C//DTD SVG 1.1//EN" "http://www.w3.org/Graphics/SVG/1.1/DTD/svg11.dtd">
<!-- Creator: CorelDRAW 2019 (64-Bit) -->
<svg xmlns="http://www.w3.org/2000/svg" xml:space="preserve" width="1000px" height="1002px" version="1.1" style="shape-rendering:geometricPrecision; text-rendering:geometricPrecision; image-rendering:optimizeQuality; fill-rule:evenodd; clip-rule:evenodd"
viewBox="0 0 1434.18 1434.71"
 xmlns:xlink="http://www.w3.org/1999/xlink">
 <defs>
  <style type="text/css">
   <![CDATA[
    .fil1 {fill:#0096D9}
    .fil4 {fill:#1F1D1D}
    .fil2 {fill:#5CC6D0}
    .fil15 {fill:#738B36}
    .fil14 {fill:#77086E}
    .fil0 {fill:#A7CE44}
    .fil9 {fill:#AA2388}
    .fil12 {fill:#D148A4}
    .fil6 {fill:#DF82C0}
    .fil5 {fill:#EEBCDD}
    .fil10 {fill:#FEEFB2}
    .fil13 {fill:#FF8800}
    .fil3 {fill:#FFBC00}
    .fil8 {fill:#FFD83A}
    .fil7 {fill:#FFE16C}
    .fil11 {fill:white}
   ]]>
  </style>
 </defs>
 <g id="Layer_x0020_1">
  <metadata id="CorelCorpID_0Corel-Layer"/>
  <g id="_2615559588224">
   <path class="fil0" d="M875.75 1094.14c27.21,-3.92 33.45,19.1 26.48,42.92 -5,17.1 -18.26,34.18 -37.25,37.41 -27.56,4.68 -33.57,-19.97 -27.49,-43.68 2.72,-10.56 7.83,-18.52 13.52,-23.81 5.85,-5.45 13.43,-11.21 24.74,-12.84zm-358.2 -0.01c26.8,-3.73 33.63,18.69 26.38,42.83 -5.23,17.41 -18.28,34.13 -37.14,37.49 -28.14,5.01 -33.56,-20.1 -27.58,-43.76 4.57,-18.1 19.07,-33.88 38.34,-36.56zm-130.85 14.88c5.13,-3.6 18.15,-11.68 24.98,-14.18 13.27,-4.85 9.38,8.53 7.68,16.11 -2.46,11.05 -1.45,6.19 0.07,7.88 4.16,-9.82 19.65,-20.08 31.32,-23.64 9.84,-3.01 14.32,-1.46 17.01,7.48 5.24,17.39 -5.68,46.71 -20.61,58.55 -4.9,3.89 -10.56,7.78 -16.9,10.58 -10.24,4.53 -11.9,3.11 -22.52,1.61 -3.42,5.33 -6.82,39.81 -8.7,42.34l-3.72 1.28c-8.62,1.41 -11.09,3.1 -10.47,-1.91l5.67 -23.98c1.89,-8.66 15.85,-74.99 15.46,-82.01 -0.49,-8.63 -10.79,1.58 -16.54,4.2 -1.72,-1.51 -1.72,-2.16 -2.73,-4.31zm347.17 1.58l-1.32 7.47 -5.04 -0.17c-1.13,-2.56 -0.62,-6.45 -0.68,-9.28 -1.18,-8.64 -32.81,-11.36 -31.72,8.2 0.76,13.93 26.92,7.84 35.5,17.08 4.3,4.63 4.52,13.94 0.91,20.41 -3.41,6.11 -6.96,9.76 -12.49,13.53 -4.95,3.38 -12.08,6.44 -19.95,7.05 -10.3,0.79 -14.12,-2.07 -21.76,-4.37l3.59 -22.63 5.61 -0.06 0.1 13.39c10.18,9.29 30.39,8.79 34.93,-4.91 6.74,-20.34 -18.07,-14.65 -30.39,-21.02 -9.77,-5.06 -12.56,-22.19 4.16,-33.39 18.22,-12.22 25.95,-8.24 40.37,-4.02 -0.39,4.39 -2.25,8.33 -1.82,12.72zm-400.85 37.29c0.08,3.48 -0.94,10.87 0.54,13.61 0.99,1.84 6.62,4.14 9.23,4.88 24.7,7 31.52,-18.51 22.4,-23.82 -4.67,-2.72 -16.49,-3.55 -22.79,-5.45 -7.6,-2.28 -12.54,-6 -12.46,-16 0.13,-14.8 18.53,-25.23 29.51,-26.95 9.01,-1.41 15.73,0.91 22.7,3.83l-3.07 19.83 -5.05 -0.26c-0.06,-6.45 2.55,-14.32 -12.76,-15.4 -9.21,-0.65 -16.36,2.16 -18.75,8.68 -3.81,10.36 1.88,13.44 10.18,15.34 6.29,1.44 16.95,2.64 21.75,5.69 11.75,7.47 6.43,24.74 -7.64,34.89 -4.91,3.54 -11.54,7.11 -19.57,7.98 -11.62,1.24 -14.75,-1.78 -23.4,-4.1l3.59 -22.81 5.59 0.06zm580.78 -37.5c4.86,-3.83 22.37,-15.32 27.63,-16.34 12.74,-2.45 1.72,22.69 1.26,30.4 2.09,-3 4.59,-6.91 6.75,-9.8 7.47,-9.96 15.77,-23.59 27.88,-20.06l0.29 1.26c0.16,1.44 -2.12,16.1 -3.16,17.09 -3.35,3.31 -2.96,-2.57 -9.32,-1.86 -12.49,1.41 -24.38,25.84 -27.37,39.77 -0.78,3.6 -1.68,7.23 -2.49,10.87 -0.43,1.92 -1.44,8.63 -2.82,9.91 0,0.01 -13.53,6.2 -13.59,0.32 0,-0.21 15.7,-54.54 13.09,-65.55 -4.74,-0.03 -11.74,5.94 -15.45,7.76 -1.73,-1.43 -1.89,-1.52 -2.7,-3.77zm-358.32 1.05c1.39,-3.36 11.35,-8.91 14.65,-10.88 4.85,-2.89 10.97,-7.8 17.9,-6.27 4.21,7.26 -3.48,21.54 -3.54,30.08 8.04,-11.22 20.41,-33.89 34.61,-29.76 0.08,0.2 0.12,0.46 0.14,0.61l-0.23 4.17c-0.34,1.62 -0.64,2.97 -0.93,4.76 -0.3,1.76 -0.45,3.18 -0.68,4.97 -0.33,2.6 -0.07,2.65 -1.38,4.38 -4.4,2.8 -4.4,-9.01 -18.38,2.6 -17.99,14.94 -20.05,52.06 -23.44,55.38 -1.69,1.65 -12.76,5.02 -13.5,1.49 -0.44,-2.09 0.97,-5.02 1.56,-7.06 0.71,-2.46 1.55,-5.3 2.19,-7.74 1.46,-5.49 2.76,-10.78 4,-16.39 1.53,-6.92 6.67,-29.35 5.19,-35.3 -5.67,-0.4 -11.55,6.49 -16.03,7.65l-2.13 -2.69zm510.35 32.77c-3.96,2.76 -8.2,10.1 -14.25,15.57 -10.24,9.27 -29.78,27.44 -30.25,2.17 -0.16,-8.59 1.71,-17.41 3.85,-25.11 2.08,-7.44 4.51,-14.8 7.93,-21.56 3.99,-7.9 7.34,-10.11 14.16,-14.65 15.36,-10.26 22.9,-6.43 34.37,-4.56 5.25,0.85 3.27,-3.44 9.47,-1.13 -0.6,6.71 -6.79,24.75 -8.84,32.89 -1.41,5.58 -2.69,10.91 -3.87,16.5 -0.61,2.86 -1.25,5.74 -1.8,8.79 -3.03,16.89 5.05,6.4 13.71,1.78 1.27,1.79 1.32,2.56 1.5,5.05 -5.87,3.15 -17.89,16.01 -28.13,13.69 -6.14,-5.48 0.95,-21.47 2.15,-29.43zm-418.09 -72.47c14.52,-3.78 9.98,-6.95 16.59,-3.92 -0.58,8.85 -7.46,24.98 -7.36,33.34 3.17,0.12 6.55,0.31 9.71,0.17l6.89 -0.56c2.97,0.49 1.63,4.19 -0.01,8.39l-18.76 0.8c-1.52,7.16 -12.23,47.95 -8.24,51.7 3.28,2.93 15.61,-7.79 18.81,-8.94l2.15 4.55c-3.33,1.68 -40.72,33.81 -37.28,6.79 2.27,-17.79 9.54,-36.91 11.3,-54.35l-14.18 0.06c0.17,-3.59 -0.28,-3.55 2.85,-4.74 16.62,-6.28 11.62,1.6 17.53,-33.29zm507.26 -12.71c6.39,-0.75 18.05,-2.98 24.15,-5.28 4.76,-1.8 2.69,-1.75 7.2,-0.41 -1.38,16.38 -24.45,99.89 -21.99,109.03 5.63,2.5 11,-6.25 17.8,-8.49l1.67 3.82c-1.77,3.04 -22.06,17.21 -28.79,17.21 -8.48,0 -6.25,-9.44 -4.84,-15.8 1.38,-6.21 2.65,-12.1 4.07,-18.43 2.46,-10.96 17.64,-69.21 13.52,-75.92 -2.83,-1.81 -9.2,-1.11 -13.22,-1.11l0.43 -4.62zm-48.06 4.07c0.54,-4.82 0.52,-4.15 5.67,-4.86 3.19,-0.44 6.31,-1.11 9.44,-1.83 3.1,-0.71 5.76,-1.37 8.76,-2.45 4.44,-1.61 4.03,-1.92 7.96,-0.26 -0.85,7.39 -9.43,43.58 -11.7,54.23 -1.6,7.46 -12.63,51.09 -9.82,54.5 3.31,3.11 12.92,-7.21 16.93,-8.59l2.12 3.86c-1.72,2 -41.54,36.19 -33.97,2.24l12.64 -55.7c1.43,-6.56 5.43,-27.14 5.91,-34.5 0.71,-10.86 -7.87,-3.36 -13.94,-6.64zm-314.86 47.66c0.46,-3.87 -0.1,-4.43 2.8,-5.71l12.04 -4.86c1.92,-1.36 1.64,-2.34 2.26,-5.47 1.8,-9.19 3.31,-18.86 8.27,-24.11 2.28,-2.41 5.83,-4.81 8.88,-7.29 17.52,-14.23 20.16,-11.41 34.72,-8.6 -0.74,2.82 -2.04,5.11 -3.09,7.83 -0.53,1.4 -0.86,2.71 -1.44,4.18 -2.42,6.18 -4.29,1.66 -7.99,-0.82 -4.1,-2.73 -14.95,-4.2 -18.83,4.98 -3.03,7.16 -6.1,21.51 -7.56,29.83 12.42,0.67 18.53,-3.28 18.9,0.75 0.18,1.95 0.16,-0.35 -0.04,1.06 -0.01,0.04 -0.87,2.34 -0.98,2.6l-2.33 5 -17.62 -0.32c-2.06,11.35 -5.2,23.83 -7.91,35.06 -4.9,20.32 -9.86,47.6 -23.77,62.06 -6.21,6.46 -16.01,14.01 -29.72,10.54l5.13 -14.76c4.15,-0.53 3.12,0.9 6.22,2.93 6.13,4 12.76,0.34 16.52,-7.64 3.8,-8.07 5.64,-18.33 7.71,-27.47 2.18,-9.67 4.15,-19.85 6.06,-29.73 1.82,-9.43 4.7,-21.05 5.59,-30.69l-13.82 0.65zm-245.37 -447.77c26.71,-5.52 47.27,13.22 51.77,34.47 5.65,26.67 -13.58,48 -34.44,52.2 -27.08,5.45 -48.18,-13.55 -52.3,-34.58 -4.6,-23.44 9.25,-46.79 34.97,-52.09zm145.4 332.66l-35.15 -0.1 -35.92 0.29c-1.38,-17.49 -0.15,-40.32 -0.15,-58.4 0,-95.19 0.87,-193.86 -0.32,-288.51 -0.78,-62.46 -1.51,-143.68 -34.36,-197.44 -2.12,-3.48 -3.69,-6.03 -5.63,-9.2 -30.25,-49.53 -82.75,-72.67 -142.57,-73.83 -18.07,-0.35 -35.43,1.12 -52.55,4.9 -10.98,2.42 -11.89,3.58 -20.41,8.41 -18.33,10.37 -34.28,23.59 -49.74,37.52 -29.13,26.24 -54.61,64.94 -68.14,105.01 -18.98,56.25 -18.58,148.95 -18.6,212.59 -0.02,77.17 0,154.35 0,231.52 0,19.76 -0.98,37.15 -0.98,57l0 202.66c0,3.97 -1.1,11.15 0.86,13.91 3.55,4.99 52.82,45.51 62.98,52.43 3.04,2.08 5.17,3.64 8.19,5.87 13.04,9.63 21.46,14.63 34.45,23.24 42.97,28.47 106.01,57.99 156.91,74.61 129.27,42.19 268.99,49.16 405.07,14.3 30.93,-7.92 59.04,-17.48 87.55,-28.57 19.64,-7.63 40.8,-17.54 59.6,-26.93 6.54,-3.26 12.75,-6.89 18.85,-10.07 12,-6.26 43.31,-25.05 54.37,-32.85l16.99 -11.88c11.88,-7.86 33.48,-24.93 44.78,-34.74 18.89,-16.39 31.56,-26.94 49.26,-45.03l21.14 -22.5c8.58,-8.22 13.26,-15.38 19.97,-22.94l13.11 -15.75c8.49,-10.9 15.89,-21.42 24.48,-33.2l33.17 -52.01c3.44,-6.27 6.91,-12.17 10.32,-18.49 5.19,-9.66 34.62,-68.04 36.38,-79.23 -3.36,1.34 -18.71,11.11 -32.43,16.95 -75.94,32.28 -169.49,21.66 -241,-16.64l-30.72 -18.67c-12.59,9.47 -11.74,10.07 -27.77,20.17 -9.93,6.26 -19.85,11.33 -31.03,16.02 -23.23,9.75 -49.22,15.57 -77.56,17.51 -42.1,2.89 -84.92,-3.73 -123.67,-18.13 -11.55,-4.29 -27.25,-12.25 -32.62,-14.17l-0.25 14.53 -96.86 -0.16z"/>
   <path class="fil1" d="M228.6 408.78l22.71 -26.06c17.07,-19.42 37.46,-36.69 57.89,-52.6 2.57,-2.01 5.12,-3.45 7.49,-5.18 43.94,-31.95 100.99,-55.03 163.06,-60.51 73.51,-6.49 142.09,9.66 195.89,49.04 20.94,15.32 34.72,27.6 51.19,48.03 2.01,2.49 2.98,4.48 4.94,6.97 1.85,2.35 3.84,4.69 5.42,7.28 2.96,4.85 6.64,10.34 9.62,15.6 2.46,-2.84 3.43,-8.37 4.94,-11.97 6.52,-15.54 10.41,-20.57 19.11,-33.71 4.63,-6.99 10.81,-13.63 15.89,-19.3 28.16,-31.43 73.46,-53.25 115.11,-59.97 42.11,-6.79 85.72,-2.77 122.94,11.03 31.63,11.74 53.4,24 79.95,42.5 3.24,2.26 6.94,4.46 9.74,6.89 44.96,-44.65 90.61,-62.14 157.83,-63.8 -1.09,-2.22 -2.13,-3.08 -4.04,-5.28 -1.84,-2.12 -2.71,-3.8 -4.64,-5.92 -3.49,-3.87 -6.36,-6.93 -9.67,-10.74 -6.31,-7.26 -13.09,-14.39 -19.57,-21.24 -6.86,-7.24 -13.19,-13.54 -20.49,-20.34 -17.72,-16.51 -46.24,-42.27 -66.32,-56.12 -3.88,-2.67 -7.7,-6.33 -11.62,-8.76 -19.65,-12.21 -38.96,-27.5 -62.18,-39.87 -9.06,-4.83 -17.35,-9.72 -26.44,-14.34 -85.53,-43.52 -172.64,-69.7 -270.16,-77.64 -15.41,-1.26 -7.72,-0.83 -12.26,-2.25 -0.07,-0.03 -525.33,-1.08 -537.1,-0.11 -0.64,4.28 0.79,6.56 0.76,11.66l-0.02 192.11c0,67.88 -1.21,136.86 0.03,204.6z"/>
   <path class="fil1" d="M0.24 0.34c0.01,15.17 -0.71,761.32 0.31,764.49 3.88,12.07 1.52,5.77 2.7,18.41 4.3,46 12.51,89.92 24.7,132.15 17.52,60.71 40.25,112.52 70.79,164.95 1.87,3.21 26.98,45.07 31.24,47.44l0.02 -1127.42 -129.76 -0.02z"/>
   <path class="fil2" d="M1137.66 886.77c4.71,4.41 14.48,10.46 20.88,14.09 7.86,4.46 15.15,8.31 23.96,11.96 47.61,19.74 100.6,19.36 145.55,-5.74 8.98,-5.02 23.13,-16.33 30.11,-23.38 8.93,-9.02 16.09,-19.24 22.31,-31.14 17.86,-34.15 11.54,-80.32 -12.86,-110.1 -19.7,-24.06 -55.44,-43.77 -83.6,-59.25 -50.26,-27.61 -87.06,-39.61 -137.29,-78.04l-19.69 -16.19c-6.98,-5.64 -12,-11.34 -17.64,-18.26 -2.58,-3.17 -5.34,-6.12 -8,-9.57 -6.77,-8.8 -14.95,-23.1 -19.85,-34.34 -12.54,-28.76 -17.14,-59.66 -14.54,-91.81 0.94,-11.59 3.19,-20.47 4.88,-30.98 -41.55,-34.66 -102.75,-65.67 -163.16,-51.44 -34.35,8.09 -68.25,34.83 -79.47,68.94 -8.25,25.09 -3.27,53.13 9.95,73.88 3.31,5.2 7.36,11.57 11.37,16.07 1.66,1.86 3.02,3.04 4.48,4.67 3.19,3.56 6.11,6.11 9.57,9.42 5.66,5.43 13.92,11.73 20.93,16.38 26.91,17.86 40.39,25.31 70.24,40.94 16.57,8.67 33.2,15.73 48.93,24.97l34.71 20.18c12.17,7.45 22.45,15.47 33.39,22.9 5.86,3.98 24.77,20.24 30.02,25.57 46.65,47.38 62.4,118.02 44.49,182.78 -2.87,10.4 -6.45,18.52 -9.67,27.49z"/>
   <path class="fil3" d="M989.69 703.22c-1.63,-2.17 -27.08,-16.16 -30.49,-18.05l-65.33 -33.33c-11.05,-5.3 -21.98,-11.94 -32.22,-17.84 -0.99,1.8 -0.3,1.49 -0.74,0.1 -3.31,0.17 -1.3,0.06 -0.82,-0.62l-0.75 -0.74c-0.86,2.81 -4.78,3.96 -8.16,7.16l-14.49 11.57 -19.67 21.1c-8.97,11.06 -16.55,22.55 -22.97,35.38 -1.4,2.79 -3.11,5.04 -3.29,8.51 -0.47,9.22 1.14,25.84 -0.89,33.9l-0.73 -72.96 0 193.96c3.86,2.42 7.33,5.92 11.28,9.05 4,3.17 7.73,6.07 11.68,8.73 10.73,7.24 12.16,8.67 25.16,15.58 18.21,9.68 37.8,17.14 61.31,20.42 35.24,4.93 71.26,-0.83 100.85,-18.07 5.19,-3.02 21.81,-14.56 23.34,-17.68 0.91,-1.7 0.11,-0.37 0.98,-1.53 0.13,-0.18 0.55,-0.67 0.69,-0.84l9.59 -9.71c-3.49,8.03 -20.97,16.1 -29.11,18.56 -4.3,1.3 -7.29,2.52 -12.08,3.44l-24.28 0.51c-2.71,-0.22 -3.62,-0.69 -6.99,-0.68 -14.5,0 -34.61,-9.28 -45.94,-18.5l-10.69 -9.77c-9.33,-9.57 -5.96,-6.45 -13.35,-15.51l-2.46 -3.96c-2.96,-5.43 -5.62,-9.52 -7.6,-16.42 -1.07,-3.68 -2.09,-8.44 -3.02,-12.51 -0.74,-3.22 -1.47,-10.19 -2.73,-13.37 -0.63,-1.59 0.22,0.44 -0.72,-1.28 -1.63,-3.01 -1.38,-8.94 -1.03,-13.24 1.57,-19.38 1.26,-9.31 6.64,-25.09 3.04,-8.93 3.29,-7.34 7.05,-14.82 5.9,-11.75 10.65,-15.04 16.81,-22.66 2.56,-3.17 9.74,-9.04 13.38,-11.4 14.77,-9.59 2.98,-2.63 15.46,-8.52 15.61,-7.37 35.64,-10.91 53.45,-8.53 3,0.41 7.9,3.03 10.01,4.77l-7.13 -5.11z"/>
   <path class="fil4" d="M656.96 995.54l35.15 0.1c0.84,-19.46 0.08,-40.66 0.08,-60.32 0,-101.57 0.45,-203.96 -0.11,-305.4 -0.41,-74.99 0.51,-142.34 -38.41,-205.83 -1.78,-2.9 -4.34,-6.08 -6.16,-8.61 -2.35,-3.23 -4.13,-5.48 -6.89,-8.64 -39.37,-45.11 -92.41,-60.11 -155.49,-59.05 -18.49,0.31 -37.04,2.92 -54.1,7.05 -11.73,2.84 -23.53,6.58 -34.6,11.21 -3.24,1.35 -6.99,3.52 -10.3,4.58l21.26 -7.23c38.23,-11.22 88.08,-11.51 125.95,0.89 7.08,2.31 14.41,5.02 20.69,8.17 6.08,3.06 14.26,7.36 18.73,10.79 2.96,2.27 5.47,3.98 8.13,5.95 6.77,5.04 16.62,14.93 22.27,21.35 28.03,31.82 44.05,80.78 48.76,125.77 3.93,37.49 3.54,73.64 4.86,111.28 1.33,37.93 0.2,77.88 0.2,116.02 0,77.23 0.64,154.73 -0.02,231.92z"/>
   <path class="fil5" d="M1175.3 506.66c1,2.26 -0.01,1.57 2.57,2.65 -0.27,1.15 -0.59,0.97 0.47,0.93 -0.24,1.18 -0.57,1.01 0.51,0.89 -0.28,1.22 -0.61,1.07 0.54,0.87l1.49 0.61c-0.26,1.17 -0.56,0.98 0.54,0.88 -0.24,1.14 -0.52,0.94 0.57,0.84 -0.24,1.15 -0.53,0.96 0.58,0.82 -0.26,1.18 -0.55,1 0.59,0.82 -0.25,1.18 -0.51,0.97 0.65,0.76 -0.25,1.2 -0.54,1.03 0.62,0.78 -0.29,1.23 -0.56,1.04 0.65,0.75 -0.29,1.24 -0.53,1.02 0.69,0.72 -0.26,1.21 -0.51,0.99 0.69,0.72 -0.31,1.25 -0.55,1.01 0.7,0.7 -0.3,1.24 -0.52,0.98 0.72,0.69 -0.29,1.23 -0.5,0.97 0.74,0.67 -0.29,1.23 -0.49,0.96 0.74,0.66 -0.27,1.22 -0.47,0.95 0.77,0.64 -0.25,1.2 -0.44,0.91 0.78,0.63 -0.24,1.19 -0.44,0.91 0.78,0.62 -0.22,1.17 -0.39,0.87 0.82,0.59 -0.21,1.17 -0.4,0.89 0.8,0.61 -0.2,1.16 -0.38,0.86 0.82,0.59 -0.21,1.22 -0.4,0.78 1.01,0.95 0,-1.5 0.39,-1.26 -1.01,-0.95 0.2,-1.16 0.38,-0.86 -0.82,-0.59 0.19,-1.16 0.38,-0.88 -0.8,-0.61 0.21,-1.16 0.39,-0.86 -0.82,-0.59 0.2,-1.18 0.41,-0.91 -0.78,-0.62 0.25,-1.21 0.44,-0.93 -0.78,-0.63 0.24,-1.2 0.45,-0.94 -0.77,-0.64 0.28,-1.22 0.49,-0.96 -0.74,-0.66 0.28,-1.22 0.5,-0.97 -0.74,-0.67 0.29,-1.24 0.52,-1 -0.72,-0.69 0.31,-1.22 0.53,-0.98 -0.7,-0.7 0.32,-1.25 0.56,-1.02 -0.69,-0.72 0.27,-1.22 0.51,-0.99 -0.69,-0.72 0.28,-1.2 0.54,-0.98 -0.65,-0.75 0.28,-1.2 0.56,-1 -0.62,-0.78 0.25,-1.16 0.5,-0.94 -0.65,-0.76 0.24,-1.16 0.53,-0.97 -0.59,-0.82 0.27,-1.14 0.54,-0.93 -0.58,-0.82 0.24,-1.14 0.52,-0.93 -0.57,-0.84 0.23,-1.19 0.56,-1.03 -0.54,-0.88l-1.49 -0.61c0.31,-1.18 0.6,-0.98 -0.54,-0.87 0.28,-1.14 0.57,-0.93 -0.51,-0.89 0.24,-1.15 0.56,-0.97 -0.47,-0.93l-2.57 -2.65zm54.31 -152.15c-7.73,1.18 -20.02,8.18 -26.83,12.07 -1.55,0.89 -3.64,2.38 -4.71,3.04l-24.36 22.13 -6.28 9.21c-11.98,18.61 -17.19,39.59 -12.58,62.82 4.07,20.49 8.49,23.7 16.42,37.99 1.06,1.89 1.85,3.42 3.98,5 -0.09,-0.21 -0.21,-0.76 -0.25,-0.65l-0.81 -2.39c3.64,2.72 0.7,2.76 10.45,9.3 7.41,4.97 10.27,7.74 22.47,11.24l23.22 3.44c9.84,0.33 25.6,-2.4 34.07,-5.97 9.12,-3.84 13.51,-6.12 20.68,-12.33 1.38,-1.2 2.36,-1.92 3.91,-3.13 27.15,-21.33 37.64,-66.42 23.26,-96.96 -8.54,-18.15 -6.61,-15.68 -22.11,-31.31 -1.48,-1.49 -1.64,-1.59 -3.37,-2.92 -4.82,-3.7 -2.41,-3.58 -11.76,-8.62 -13.6,-7.33 -26.92,-10.84 -43.26,-10.77 -4.07,0.02 -0.83,0.25 -2.14,-1.19zm-17.04 85.41c0,-4.5 3.05,-9.32 6.24,-12.25 14.28,-13.15 32.85,0.11 32.85,10.84 0,6.48 0.03,12.5 -5.74,17.02 -9.34,7.3 -19.11,6.65 -28.13,-0.91 -3.85,-3.22 -5.22,-9.15 -5.22,-14.7z"/>
   <path class="fil6" d="M1336.76 364.58l4.86 2.18c0.37,0.97 -1.41,0.78 1.62,0.77 -0.63,-0.92 1.2,-0.96 -1.62,-0.77 -0.89,-0.87 -0.63,-0.84 -2.16,-1.51 -1.33,-0.59 -1.34,-0.51 -2.7,-0.67l-0.84 -0.61c-9.11,-5.52 -38.64,-12.45 -49.16,-13.72 -14.73,-1.78 -29.64,-1.55 -44.22,1.28 -4,0.78 -9.67,2.72 -12.93,2.98 1.31,1.44 -1.93,1.21 2.14,1.19 16.34,-0.07 29.66,3.44 43.26,10.77 9.35,5.04 6.94,4.92 11.76,8.62 1.73,1.33 1.89,1.43 3.37,2.92 15.5,15.63 13.57,13.16 22.11,31.31 14.38,30.54 3.89,75.63 -23.26,96.96 -1.55,1.21 -2.53,1.93 -3.91,3.13 -7.17,6.21 -11.56,8.49 -20.68,12.33 -8.47,3.57 -24.23,6.3 -34.07,5.97l-23.22 -3.44c-12.2,-3.5 -15.06,-6.27 -22.47,-11.24 -9.75,-6.54 -6.81,-6.58 -10.45,-9.3l0.81 2.39c0.04,-0.11 0.16,0.44 0.25,0.65l0.05 -0.11 2.57 2.65c1.03,-0.04 0.71,-0.22 0.47,0.93 1.08,-0.04 0.79,-0.25 0.51,0.89 1.14,-0.11 0.85,-0.31 0.54,0.87l1.49 0.61c1.1,-0.15 0.77,-0.31 0.54,0.88 1.09,-0.09 0.81,-0.3 0.57,0.84 1.12,-0.11 0.85,-0.32 0.58,0.82 1.12,-0.15 0.83,-0.34 0.59,0.82 1.15,-0.18 0.9,-0.4 0.65,0.76 1.18,-0.22 0.9,-0.42 0.62,0.78 1.19,-0.23 0.93,-0.45 0.65,0.75 1.2,-0.27 0.96,-0.5 0.69,0.72 1.25,-0.3 1.01,-0.53 0.69,0.72 1.23,-0.28 1.01,-0.52 0.7,0.7 1.24,-0.31 1.01,-0.55 0.72,0.69 1.24,-0.3 1.02,-0.55 0.74,0.67 1.23,-0.3 1.02,-0.56 0.74,0.66 1.22,-0.3 1.01,-0.56 0.77,0.64 1.22,-0.3 1.03,-0.58 0.78,0.63 1.19,-0.29 0.98,-0.56 0.78,0.62 1.21,-0.27 1.03,-0.57 0.82,0.59 1.18,-0.27 0.99,-0.55 0.8,0.61 1.2,-0.27 1.02,-0.57 0.82,0.59 1.4,-0.31 1.01,-0.55 1.01,0.95 0.98,1.53 12.31,10.39 15.16,12.43 3.08,2.21 5.45,3.5 8.39,5.65 2.83,2.07 5.44,3.93 8.38,5.77 6.93,4.33 31.47,19.46 36.13,20.72 -0.22,1.3 -0.3,0.77 1.18,0.31 0.26,1.08 -0.91,0.89 1.28,0.74 -0.16,1.25 -0.31,0.79 1.15,0.5l0.17 0.25 -0.17 -0.25c0.2,-1.49 0.37,-1.04 -1.15,-0.5l-1.28 -0.74c0.27,-1.35 0.33,-0.79 -1.18,-0.31l-1.46 -1.34c-0.11,-0.1 -0.29,-0.22 -0.41,-0.31l-1.55 -1.41c5.51,1.12 1.74,3.05 8.18,1.11 5.45,-1.65 11.03,-3.32 15.99,-5.83 2.67,-1.35 4.65,-1.94 7.29,-3.26 11.09,-5.57 14.2,-9.08 20.02,-12.35 5.1,-2.87 12.95,-10.8 17.28,-15.05 4.25,-4.17 2.06,-3.37 4.89,-6.36 11.53,-12.21 10.36,-14.19 17.66,-25.24 3.85,-5.83 4.31,-11.27 6.06,-15.71 10.42,-26.46 9.97,-56.14 2.06,-82.71 -2.31,-7.77 -2.72,-8.22 -6.12,-14.97 -1.93,-3.84 -8.53,-18.67 -12.1,-20.22l-0.72 -0.27c-3.59,-1.51 -4.96,-1.94 -3.51,-3.12z"/>
   <path class="fil7" d="M928.2 800.92c0,-9.88 1.13,-11.97 4.13,-18.56 2.15,-4.72 3.48,-6.59 6.58,-10.38 3.99,-4.87 0.77,-1.77 5.61,-5.7 6.76,-5.51 0.73,-1.72 10.5,-6.45 14.34,-6.96 34.12,-5.41 46.96,4.13 8.96,6.65 16.46,16.19 17.66,27.63 1.13,10.75 3.12,16 -2.55,29.6 -1.99,4.77 -4.45,8.48 -8.1,11.72 -6.4,5.68 -3.47,3.98 -11.06,8.68 -16.04,9.93 -38.35,8.22 -49.91,-1.81 -14.07,-12.21 -19.81,-19.89 -19.82,-38.86zm41.78 -76.2c-8.82,0.01 -3.72,-0.49 -7.94,0.62 -0.57,0.15 -2.14,0.39 -2.89,0.55 -3.94,0.84 -8.31,1.76 -11.09,3.07 -6.59,3.1 -19.22,9.41 -24.29,14.49l-2.03 2.2c-2.41,2.52 -4.98,4.15 -6.66,7.44 -0.11,0.21 -0.22,0.57 -0.3,0.74l-1 1.11c-2.48,1.88 -8.39,10.02 -9.1,13.18 -0.88,3.88 0.78,1.25 -0.87,5.39 -5.32,13.33 -5.77,13.48 -5.83,29.52 -0.03,5.2 0.58,8.29 0.72,13.39 0.32,11.73 13.69,34.92 22.53,41.03 4.45,3.08 -0.38,1.84 12.6,9.92 18.04,11.24 26.97,11.26 46,11.17 13.22,-0.07 13.84,1.32 24.05,-4.28l2.86 -1.34c0.85,-0.37 1.31,-0.56 2.46,-1.07 6.36,-2.81 15.54,-10.15 20.24,-14.99 4.31,-4.46 12.84,-15.5 14.56,-21.44 1.31,-4.5 6.57,-17.15 7.17,-21.24l-0.07 -4.11c1.28,-0.74 0.86,0.7 0.79,-2.12l0.02 -12.49c0.38,-2.09 -0.24,-0.35 0.54,-1.4 -1.04,-2.99 -0.31,-0.46 -1.35,-0.88 0,-1.21 0.17,-3.5 0.11,-4.48l-7.8 -21.02c-3.87,-7.88 -9.58,-14.92 -15.31,-20.66 -8.39,-8.39 -8.61,-9.12 -20.83,-15.12 -1.57,-0.77 -1.94,-0.69 -3.55,-1.39 -8.59,-3.74 -13.84,-5.78 -24.59,-5.79 -0.42,-1.04 2.1,-0.31 -0.88,-1.35 -1.29,0.96 -4.34,0.88 -5.97,0.56 -2.1,-0.41 -0.37,0.22 -1.42,-0.56 -2.99,1.04 -0.46,0.31 -0.88,1.35zm-25.92 5.26l-0.28 -0.27c-0.1,0.09 0.25,0.25 0.28,0.27zm1.41 -0.7l-0.28 -0.28c-0.1,0.09 0.25,0.25 0.28,0.28zm7.74 -2.82l-0.28 -0.27c-0.1,0.09 0.25,0.25 0.28,0.27zm2.81 -0.7l-0.28 -0.28c-0.09,0.1 0.26,0.25 0.28,0.28zm2.82 -0.71l-0.28 -0.27c-0.1,0.09 0.25,0.25 0.28,0.27zm26.44 -0.97c-0.1,0.1 0.3,0.25 0.34,0.28l-0.34 -0.28zm4.22 0.7c-0.1,0.1 0.31,0.26 0.34,0.28l-0.34 -0.28zm8.08 2.39c0,-0.14 -0.23,-0.38 -0.33,-0.28 -0.11,0.1 0.3,0.26 0.33,0.28l0 0zm2.11 0.71c0,-0.15 -0.23,-0.39 -0.33,-0.28 -0.11,0.1 0.3,0.25 0.33,0.28l0 0zm41.5 34.45c0,-0.15 -0.24,-0.4 -0.35,-0.29 -0.1,0.1 0.32,0.26 0.35,0.29 0.02,0.01 0.14,0.11 0.15,0.12 0,0.01 -0.15,-0.06 -0.15,-0.12zm-106.55 105.96c-0.1,0.1 0.26,0.3 0.29,0.33l-0.29 -0.33zm-3.52 -2.11c-0.1,0.1 0.26,0.29 0.29,0.32l-0.29 -0.32zm-2.11 -1.4c-0.1,0.1 0.26,0.29 0.29,0.32l-0.29 -0.32zm-18.27 -18.31c-0.1,0.1 0.26,0.3 0.29,0.34l-0.29 -0.34zm-2.81 -4.23c-0.1,0.11 0.25,0.31 0.28,0.34l-0.28 -0.34z"/>
   <path class="fil8" d="M1022.76 889.39c5.08,-3.71 14.41,-13.8 18.18,-18.91 5.8,-7.86 9.5,-13.62 13.73,-23.58 8.01,-18.87 9.77,-43.22 4.51,-64.19 -5.42,-21.64 -17.14,-37.94 -26.21,-47.24 -5.75,-5.91 -12.17,-11.11 -20.36,-17.28 -4.71,-3.56 -17.84,-12.62 -22.92,-14.97l7.13 5.11c-2.11,-1.74 -7.01,-4.36 -10.01,-4.77 -17.81,-2.38 -37.84,1.16 -53.45,8.53 -12.48,5.89 -0.69,-1.07 -15.46,8.52 -3.64,2.36 -10.82,8.23 -13.38,11.4 -6.16,7.62 -10.91,10.91 -16.81,22.66 -3.76,7.48 -4.01,5.89 -7.05,14.82 -5.38,15.78 -5.07,5.71 -6.64,25.09 -0.35,4.3 -0.6,10.23 1.03,13.24 0.94,1.72 0.09,-0.31 0.72,1.28 1.26,3.18 1.99,10.15 2.73,13.37 0.93,4.07 1.95,8.83 3.02,12.51 1.98,6.9 4.64,10.99 7.6,16.42l2.46 3.96c7.39,9.06 4.02,5.94 13.35,15.51l10.69 9.77c11.33,9.22 31.44,18.5 45.94,18.5 3.37,-0.01 4.28,0.46 6.99,0.68l24.28 -0.51c4.79,-0.92 7.78,-2.14 12.08,-3.44 8.14,-2.46 25.62,-10.53 29.11,-18.56l-9.59 9.71c-0.14,0.17 -0.56,0.66 -0.69,0.84 -0.87,1.16 -0.07,-0.17 -0.98,1.53zm-88.12 -21.1l0.29 0.33c-0.03,-0.03 -0.39,-0.23 -0.29,-0.33zm-3.52 -2.11l0.29 0.32c-0.03,-0.03 -0.39,-0.22 -0.29,-0.32zm-2.11 -1.4l0.29 0.32c-0.03,-0.03 -0.39,-0.22 -0.29,-0.32zm-18.27 -18.31l0.29 0.34c-0.03,-0.04 -0.39,-0.24 -0.29,-0.34zm-2.81 -4.23l0.28 0.34c-0.03,-0.03 -0.38,-0.23 -0.28,-0.34zm62.05 -117.52c0.42,-1.04 -2.11,-0.31 0.88,-1.35 1.05,0.78 -0.68,0.15 1.42,0.56 1.63,0.32 4.68,0.4 5.97,-0.56 2.98,1.04 0.46,0.31 0.88,1.35 10.75,0.01 16,2.05 24.59,5.79 1.61,0.7 1.98,0.62 3.55,1.39 12.22,6 12.44,6.73 20.83,15.12 5.73,5.74 11.44,12.78 15.31,20.66l7.8 21.02c0.06,0.98 -0.11,3.27 -0.11,4.48 1.04,0.42 0.31,-2.11 1.35,0.88 -0.78,1.05 -0.16,-0.69 -0.54,1.4l-0.02 12.49c0.07,2.82 0.49,1.38 -0.79,2.12l0.07 4.11c-0.6,4.09 -5.86,16.74 -7.17,21.24 -1.72,5.94 -10.25,16.98 -14.56,21.44 -4.7,4.84 -13.88,12.18 -20.24,14.99 -1.15,0.51 -1.61,0.7 -2.46,1.07l-2.86 1.34c-10.21,5.6 -10.83,4.21 -24.05,4.28 -19.03,0.09 -27.96,0.07 -46,-11.17 -12.98,-8.08 -8.15,-6.84 -12.6,-9.92 -8.84,-6.11 -22.21,-29.3 -22.53,-41.03 -0.14,-5.1 -0.75,-8.19 -0.72,-13.39 0.06,-16.04 0.51,-16.19 5.83,-29.52 1.65,-4.14 -0.01,-1.51 0.87,-5.39 0.71,-3.16 6.62,-11.3 9.1,-13.18l1 -1.11c0.08,-0.17 0.19,-0.53 0.3,-0.74 1.68,-3.29 4.25,-4.92 6.66,-7.44l2.03 -2.2c5.07,-5.08 17.7,-11.39 24.29,-14.49 2.78,-1.31 7.15,-2.23 11.09,-3.07 0.75,-0.16 2.32,-0.4 2.89,-0.55 4.22,-1.11 -0.88,-0.61 7.94,-0.62zm70.86 37.32c0.11,-0.11 0.35,0.14 0.35,0.29 0,0.06 0.15,0.13 0.15,0.12 -0.01,-0.01 -0.13,-0.11 -0.15,-0.12 -0.03,-0.03 -0.45,-0.19 -0.35,-0.29zm-97.06 -32.33l0.28 0.27c-0.03,-0.02 -0.38,-0.18 -0.28,-0.27zm1.41 -0.71l0.28 0.28c-0.03,-0.03 -0.38,-0.19 -0.28,-0.28zm54.17 -1.4c0.1,-0.11 0.33,0.13 0.33,0.28l0 0c-0.03,-0.03 -0.44,-0.18 -0.33,-0.28zm-2.11 -0.71c0.1,-0.1 0.33,0.14 0.33,0.28l0 0c-0.03,-0.02 -0.44,-0.18 -0.33,-0.28zm-44.32 -0.7l0.28 0.27c-0.03,-0.02 -0.38,-0.18 -0.28,-0.27zm2.81 -0.71l0.28 0.28c-0.02,-0.03 -0.37,-0.18 -0.28,-0.28zm33.76 -0.7l0.34 0.28c-0.03,-0.02 -0.44,-0.18 -0.34,-0.28zm-30.94 0l0.28 0.27c-0.03,-0.02 -0.38,-0.18 -0.28,-0.27zm26.72 -0.7l0.34 0.28c-0.04,-0.03 -0.44,-0.18 -0.34,-0.28z"/>
   <path class="fil9" d="M1427.13 608.74c-3.61,-24.77 -8.92,-48.09 -14.78,-71.47 -2.79,-11.11 -6.18,-22.64 -9.56,-33.39 -2.87,-9.13 -6.97,-23.66 -10.88,-31.59 -1.51,0 -1.25,0.34 -0.71,-1.09 -0.18,2.05 0.74,2.72 1.01,4.78 0.64,4.89 -8.64,29.41 -11.91,35l-9.96 16.78c-5.63,8.44 -13.29,19.59 -20.85,27.08 -12.56,12.44 -18.9,17.38 -33.67,26.25 -5.96,3.58 -12.67,8.83 -17.53,7.66 0.08,0.01 0.01,-1.25 2.14,1.45 1.39,-0.55 0.99,-0.72 0.99,0.84 2.43,2.06 20.75,10.94 25.51,13.37 20.47,10.45 31.01,18.26 49.58,29.24 5.75,3.4 18.69,13.86 23.5,15.76 -0.11,1.28 -0.3,0.9 1.05,0.53 -0.33,1.25 -0.48,0.78 0.98,1.04 0,-1.66 0.49,-1.5 -0.98,-1.04 0.37,-1.39 0.45,-0.91 -1.05,-0.53 -4.12,-4.97 -1.99,-0.01 -3.08,-4.2 13.23,-8.81 22.21,-21.83 29.51,-26.04 0,-2.78 -0.26,-3.1 -0.51,-4.88 -0.86,-6.07 0.54,-5.07 1.2,-5.55z"/>
   <path class="fil10" d="M988.45 801.62c0,4.09 -2.02,6.95 -4.71,9.54 -13.45,12.89 -30.45,-7.73 -18.47,-19.17 3.72,-3.55 13.84,-3.09 17.43,-1.75 3.13,1.16 4.37,1.3 4.71,5.96 0.11,1.5 1.04,4.41 1.04,5.42zm-25.71 4.05c0.72,-0.74 -1.07,1.11 0,0zm-34.54 -4.75c0.01,18.97 5.75,26.65 19.82,38.86 11.56,10.03 33.87,11.74 49.91,1.81 7.59,-4.7 4.66,-3 11.06,-8.68 3.65,-3.24 6.11,-6.95 8.1,-11.72 5.67,-13.6 3.68,-18.85 2.55,-29.6 -1.2,-11.44 -8.7,-20.98 -17.66,-27.63 -12.84,-9.54 -32.62,-11.09 -46.96,-4.13 -9.77,4.73 -3.74,0.94 -10.5,6.45 -4.84,3.93 -1.62,0.83 -5.61,5.7 -3.1,3.79 -4.43,5.66 -6.58,10.38 -3,6.59 -4.13,8.68 -4.13,18.56z"/>
   <path class="fil11" d="M546.71 662.98c-25.72,5.3 -39.57,28.65 -34.97,52.09 4.12,21.03 25.22,40.03 52.3,34.58 20.86,-4.2 40.09,-25.53 34.44,-52.2 -4.5,-21.25 -25.06,-39.99 -51.77,-34.47z"/>
   <path class="fil12" d="M1391.2 471.2c-0.54,1.43 -0.8,1.09 0.71,1.09l-0.71 -1.09c0,-5.91 -18.57,-47.05 -21.88,-54.16 -3.63,-7.82 -22.38,-47.39 -26.08,-49.51 -3.03,0.01 -1.25,0.2 -1.62,-0.77l-4.86 -2.18c-1.45,1.18 -0.08,1.61 3.51,3.12l0.72 0.27c3.57,1.55 10.17,16.38 12.1,20.22 3.4,6.75 3.81,7.2 6.12,14.97 7.91,26.57 8.36,56.25 -2.06,82.71 -1.75,4.44 -2.21,9.88 -6.06,15.71 -7.3,11.05 -6.13,13.03 -17.66,25.24 -2.83,2.99 -0.64,2.19 -4.89,6.36 -4.33,4.25 -12.18,12.18 -17.28,15.05 -5.82,3.27 -8.93,6.78 -20.02,12.35 -2.64,1.32 -4.62,1.91 -7.29,3.26 -4.96,2.51 -10.54,4.18 -15.99,5.83 -6.44,1.94 -2.67,0.01 -8.18,-1.11l1.55 1.41c0.12,0.09 0.3,0.21 0.41,0.31l1.46 1.34c1.51,-0.48 1.45,-1.04 1.18,0.31l1.28 0.74c1.52,-0.54 1.35,-0.99 1.15,0.5l0.17 0.25c2.12,2.09 30.12,16.52 33.45,16.78 -0.46,1.21 -0.51,0.73 0.99,0.84 0,-1.56 0.4,-1.39 -0.99,-0.84 -2.13,-2.7 -2.06,-1.44 -2.14,-1.45 4.86,1.17 11.57,-4.08 17.53,-7.66 14.77,-8.87 21.11,-13.81 33.67,-26.25 7.56,-7.49 15.22,-18.64 20.85,-27.08l9.96 -16.78c3.27,-5.59 12.55,-30.11 11.91,-35 -0.27,-2.06 -1.19,-2.73 -1.01,-4.78z"/>
   <path class="fil13" d="M789.14 677.4l0.73 72.96c2.03,-8.06 0.42,-24.68 0.89,-33.9 0.18,-3.47 1.89,-5.72 3.29,-8.51 6.42,-12.83 14,-24.32 22.97,-35.38l19.67 -21.1 14.49 -11.57c3.38,-3.2 7.3,-4.35 8.16,-7.16l-18.94 -11.85c-8.77,-5.66 -28.89,-20.51 -35.59,-26.35 -3.12,-2.72 -5.2,-4.96 -8.06,-7.41 -2.79,-2.38 -5.81,-5.82 -8.36,-7.67l0.75 48.35c0.02,16.52 0.13,33.08 0,49.59zm71.77 -43.3c0.44,1.39 -0.25,1.7 0.74,-0.1l-0.74 0.1c0.47,-1.15 0.51,-0.75 -0.82,-0.62 -0.48,0.68 -2.49,0.79 0.82,0.62z"/>
   <path class="fil4" d="M409.27 1162.67c0.54,-6.25 3.16,-15.83 4.83,-21.81 8.44,-30.27 36.87,-43.2 39.87,-32.22 3.1,11.31 -7.6,51.09 -23.1,56.75 -8.2,3 -15.59,0.22 -21.6,-2.72zm-22.57 -53.66c1.01,2.15 1.01,2.8 2.73,4.31 5.75,-2.62 16.05,-12.83 16.54,-4.2 0.39,7.02 -13.57,73.35 -15.46,82.01l-5.67 23.98c-0.62,5.01 1.85,3.32 10.47,1.91l3.72 -1.28c1.88,-2.53 5.28,-37.01 8.7,-42.34 10.62,1.5 12.28,2.92 22.52,-1.61 6.34,-2.8 12,-6.69 16.9,-10.58 14.93,-11.84 25.85,-41.16 20.61,-58.55 -2.69,-8.94 -7.17,-10.49 -17.01,-7.48 -11.67,3.56 -27.16,13.82 -31.32,23.64 -1.52,-1.69 -2.53,3.17 -0.07,-7.88 1.7,-7.58 5.59,-20.96 -7.68,-16.11 -6.83,2.5 -19.85,10.58 -24.98,14.18z"/>
   <path class="fil4" d="M792.08 1110.75l13.82 -0.65c-0.89,9.64 -3.77,21.26 -5.59,30.69 -1.91,9.88 -3.88,20.06 -6.06,29.73 -2.07,9.14 -3.91,19.4 -7.71,27.47 -3.76,7.98 -10.39,11.64 -16.52,7.64 -3.1,-2.03 -2.07,-3.46 -6.22,-2.93l-5.13 14.76c13.71,3.47 23.51,-4.08 29.72,-10.54 13.91,-14.46 18.87,-41.74 23.77,-62.06 2.71,-11.23 5.85,-23.71 7.91,-35.06l17.62 0.32 2.33 -5c0.11,-0.26 0.97,-2.56 0.98,-2.6 0.2,-1.41 0.22,0.89 0.04,-1.06 -0.37,-4.03 -6.48,-0.08 -18.9,-0.75 1.46,-8.32 4.53,-22.67 7.56,-29.83 3.88,-9.18 14.73,-7.71 18.83,-4.98 3.7,2.48 5.57,7 7.99,0.82 0.58,-1.47 0.91,-2.78 1.44,-4.18 1.05,-2.72 2.35,-5.01 3.09,-7.83 -14.56,-2.81 -17.2,-5.63 -34.72,8.6 -3.05,2.48 -6.6,4.88 -8.88,7.29 -4.96,5.25 -6.47,14.92 -8.27,24.11 -0.62,3.13 -0.34,4.11 -2.26,5.47l-12.04 4.86c-2.9,1.28 -2.34,1.84 -2.8,5.71z"/>
   <path class="fil4" d="M1074.15 1108.43c-4,20.23 -11.68,35.43 -26.51,47.43 -2.94,2.38 -12.81,13.05 -12.59,0.46 0.24,-13.41 4.83,-28.76 9.34,-40.25 3.96,-10.08 8.38,-15.16 23.36,-12.51 1.14,0.2 4.37,0.88 5.14,1.23 2.4,1.1 1.83,0.76 1.26,3.64zm-8.32 35.77c-1.2,7.96 -8.29,23.95 -2.15,29.43 10.24,2.32 22.26,-10.54 28.13,-13.69 -0.18,-2.49 -0.23,-3.26 -1.5,-5.05 -8.66,4.62 -16.74,15.11 -13.71,-1.78 0.55,-3.05 1.19,-5.93 1.8,-8.79 1.18,-5.59 2.46,-10.92 3.87,-16.5 2.05,-8.14 8.24,-26.18 8.84,-32.89 -6.2,-2.31 -4.22,1.98 -9.47,1.13 -11.47,-1.87 -19.01,-5.7 -34.37,4.56 -6.82,4.54 -10.17,6.75 -14.16,14.65 -3.42,6.76 -5.85,14.12 -7.93,21.56 -2.14,7.7 -4.01,16.52 -3.85,25.11 0.47,25.27 20.01,7.1 30.25,-2.17 6.05,-5.47 10.29,-12.81 14.25,-15.57z"/>
   <path class="fil4" d="M531.79 1128.14c-1.32,15.42 -6.51,31.6 -16.41,37.23 -7.21,4.1 -15.57,2.1 -19.61,-2.84 -8.4,-10.25 -2.73,-52.4 12.91,-60.13 7.75,-3.84 15.42,-1.16 19.6,3.71 4.38,5.12 4.14,14.78 3.51,22.03zm-14.24 -34.01c-19.27,2.68 -33.77,18.46 -38.34,36.56 -5.98,23.66 -0.56,48.77 27.58,43.76 18.86,-3.36 31.91,-20.08 37.14,-37.49 7.25,-24.14 0.42,-46.56 -26.38,-42.83z"/>
   <path class="fil4" d="M890.11 1128.14c-3.68,45.66 -30.27,42.72 -36.27,34.51 -8.47,-11.58 -1.76,-53.28 13.03,-60.23 7.87,-3.7 15.65,-1.07 19.72,3.56 4.42,5.05 4.1,15 3.52,22.16zm-14.36 -34c-11.31,1.63 -18.89,7.39 -24.74,12.84 -5.69,5.29 -10.8,13.25 -13.52,23.81 -6.08,23.71 -0.07,48.36 27.49,43.68 18.99,-3.23 32.25,-20.31 37.25,-37.41 6.97,-23.82 0.73,-46.84 -26.48,-42.92z"/>
   <path class="fil0" d="M890.11 1128.14c0.58,-7.16 0.9,-17.11 -3.52,-22.16 -4.07,-4.63 -11.85,-7.26 -19.72,-3.56 -14.79,6.95 -21.5,48.65 -13.03,60.23 6,8.21 32.59,11.15 36.27,-34.51z"/>
   <path class="fil0" d="M531.79 1128.14c0.63,-7.25 0.87,-16.91 -3.51,-22.03 -4.18,-4.87 -11.85,-7.55 -19.6,-3.71 -15.64,7.73 -21.31,49.88 -12.91,60.13 4.04,4.94 12.4,6.94 19.61,2.84 9.9,-5.63 15.09,-21.81 16.41,-37.23z"/>
   <path class="fil4" d="M1106.94 1063.09c6.07,3.28 14.65,-4.22 13.94,6.64 -0.48,7.36 -4.48,27.94 -5.91,34.5l-12.64 55.7c-7.57,33.95 32.25,-0.24 33.97,-2.24l-2.12 -3.86c-4.01,1.38 -13.62,11.7 -16.93,8.59 -2.81,-3.41 8.22,-47.04 9.82,-54.5 2.27,-10.65 10.85,-46.84 11.7,-54.23 -3.93,-1.66 -3.52,-1.35 -7.96,0.26 -3,1.08 -5.66,1.74 -8.76,2.45 -3.13,0.72 -6.25,1.39 -9.44,1.83 -5.15,0.71 -5.13,0.04 -5.67,4.86z"/>
   <path class="fil4" d="M647.74 1071.73c-5.91,34.89 -0.91,27.01 -17.53,33.29 -3.13,1.19 -2.68,1.15 -2.85,4.74l14.18 -0.06c-1.76,17.44 -9.03,36.56 -11.3,54.35 -3.44,27.02 33.95,-5.11 37.28,-6.79l-2.15 -4.55c-3.2,1.15 -15.53,11.87 -18.81,8.94 -3.99,-3.75 6.72,-44.54 8.24,-51.7l18.76 -0.8c1.64,-4.2 2.98,-7.9 0.01,-8.39l-6.89 0.56c-3.16,0.14 -6.54,-0.05 -9.71,-0.17 -0.1,-8.36 6.78,-24.49 7.36,-33.34 -6.61,-3.03 -2.07,0.14 -16.59,3.92z"/>
   <path class="fil4" d="M1155 1059.02l-0.43 4.62c4.02,0 10.39,-0.7 13.22,1.11 4.12,6.71 -11.06,64.96 -13.52,75.92 -1.42,6.33 -2.69,12.22 -4.07,18.43 -1.41,6.36 -3.64,15.8 4.84,15.8 6.73,0 27.02,-14.17 28.79,-17.21l-1.67 -3.82c-6.8,2.24 -12.17,10.99 -17.8,8.49 -2.46,-9.14 20.61,-92.65 21.99,-109.03 -4.51,-1.34 -2.44,-1.39 -7.2,0.41 -6.1,2.3 -17.76,4.53 -24.15,5.28z"/>
   <path class="fil4" d="M333.02 1147.88l-5.59 -0.06 -3.59 22.81c8.65,2.32 11.78,5.34 23.4,4.1 8.03,-0.87 14.66,-4.44 19.57,-7.98 14.07,-10.15 19.39,-27.42 7.64,-34.89 -4.8,-3.05 -15.46,-4.25 -21.75,-5.69 -8.3,-1.9 -13.99,-4.98 -10.18,-15.34 2.39,-6.52 9.54,-9.33 18.75,-8.68 15.31,1.08 12.7,8.95 12.76,15.4l5.05 0.26 3.07 -19.83c-6.97,-2.92 -13.69,-5.24 -22.7,-3.83 -10.98,1.72 -29.38,12.15 -29.51,26.95 -0.08,10 4.86,13.72 12.46,16 6.3,1.9 18.12,2.73 22.79,5.45 9.12,5.31 2.3,30.82 -22.4,23.82 -2.61,-0.74 -8.24,-3.04 -9.23,-4.88 -1.48,-2.74 -0.46,-10.13 -0.54,-13.61z"/>
   <path class="fil4" d="M726.83 1108.61c1.71,1.61 0.75,4.6 1,8.84l4.46 0c0.06,-2.08 0.35,-5.22 1.58,-6.86 -0.43,-4.39 1.43,-8.33 1.82,-12.72 -14.42,-4.22 -22.15,-8.2 -40.37,4.02 -16.72,11.2 -13.93,28.33 -4.16,33.39 12.32,6.37 37.13,0.68 30.39,21.02 -4.54,13.7 -24.75,14.2 -34.93,4.91l-0.1 -13.39 -5.61 0.06 -3.59 22.63c7.64,2.3 11.46,5.16 21.76,4.37 7.87,-0.61 15,-3.67 19.95,-7.05 5.53,-3.77 9.08,-7.42 12.49,-13.53 3.61,-6.47 3.39,-15.78 -0.91,-20.41 -8.58,-9.24 -34.74,-3.15 -35.5,-17.08 -1.09,-19.56 30.54,-16.84 31.72,-8.2z"/>
   <path class="fil0" d="M409.27 1162.67c6.01,2.94 13.4,5.72 21.6,2.72 15.5,-5.66 26.2,-45.44 23.1,-56.75 -3,-10.98 -31.43,1.95 -39.87,32.22 -1.67,5.98 -4.29,15.56 -4.83,21.81z"/>
   <path class="fil4" d="M913.8 1110.38c0.81,2.25 0.97,2.34 2.7,3.77 3.71,-1.82 10.71,-7.79 15.45,-7.76 2.61,11.01 -13.09,65.34 -13.09,65.55 0.06,5.88 13.59,-0.31 13.59,-0.32 1.38,-1.28 2.39,-7.99 2.82,-9.91 0.81,-3.64 1.71,-7.27 2.49,-10.87 2.99,-13.93 14.88,-38.36 27.37,-39.77 6.36,-0.71 5.97,5.17 9.32,1.86 1.04,-0.99 3.32,-15.65 3.16,-17.09l-0.29 -1.26c-12.11,-3.53 -20.41,10.1 -27.88,20.06 -2.16,2.89 -4.66,6.8 -6.75,9.8 0.46,-7.71 11.48,-32.85 -1.26,-30.4 -5.26,1.02 -22.77,12.51 -27.63,16.34z"/>
   <path class="fil4" d="M555.48 1111.43l2.13 2.69c4.48,-1.16 10.36,-8.05 16.03,-7.65 1.48,5.95 -3.66,28.38 -5.19,35.3 -1.24,5.61 -2.54,10.9 -4,16.39 -0.64,2.44 -1.48,5.28 -2.19,7.74 -0.59,2.04 -2,4.97 -1.56,7.06 0.74,3.53 11.81,0.16 13.5,-1.49 3.39,-3.32 5.45,-40.44 23.44,-55.38 13.98,-11.61 13.98,0.2 18.38,-2.6 1.31,-1.73 1.05,-1.78 1.38,-4.38 0.23,-1.79 0.38,-3.21 0.68,-4.97 0.29,-1.79 0.59,-3.14 0.93,-4.76l0.23 -4.17c-0.02,-0.15 -0.06,-0.41 -0.14,-0.61 -14.2,-4.13 -26.57,18.54 -34.61,29.76 0.06,-8.54 7.75,-22.82 3.54,-30.08 -6.93,-1.53 -13.05,3.38 -17.9,6.27 -3.3,1.97 -13.26,7.52 -14.65,10.88z"/>
   <path class="fil0" d="M1074.15 1108.43c0.57,-2.88 1.14,-2.54 -1.26,-3.64 -0.77,-0.35 -4,-1.03 -5.14,-1.23 -14.98,-2.65 -19.4,2.43 -23.36,12.51 -4.51,11.49 -9.1,26.84 -9.34,40.25 -0.22,12.59 9.65,1.92 12.59,-0.46 14.83,-12 22.51,-27.2 26.51,-47.43z"/>
   <path class="fil11" d="M1212.57 439.92c0,5.55 1.37,11.48 5.22,14.7 9.02,7.56 18.79,8.21 28.13,0.91 5.77,-4.52 5.74,-10.54 5.74,-17.02 0,-10.73 -18.57,-23.99 -32.85,-10.84 -3.19,2.93 -6.24,7.75 -6.24,12.25z"/>
   <path class="fil14" d="M1400.01 649.41c1.5,-0.38 1.42,-0.86 1.05,0.53 1.47,-0.46 0.98,-0.62 0.98,1.04 0.83,1.79 5.96,5.04 8.08,6.76 3.11,2.54 5.28,4.48 8.37,7.1l15.64 14.69c0.38,-10.2 -1.59,-25.69 -2.69,-36.1 -1.14,-10.8 -3.88,-24.53 -4.31,-34.69 -0.66,0.48 -2.06,-0.52 -1.2,5.55 0.25,1.78 0.51,2.1 0.51,4.88 -7.3,4.21 -16.28,17.23 -29.51,26.04 1.09,4.19 -1.04,-0.77 3.08,4.2z"/>
   <path class="fil11" d="M962.74 805.67c-1.07,1.11 0.72,-0.74 0,0zm25.71 -4.05c0,-1.01 -0.93,-3.92 -1.04,-5.42 -0.34,-4.66 -1.58,-4.8 -4.71,-5.96 -3.59,-1.34 -13.71,-1.8 -17.43,1.75 -11.98,11.44 5.02,32.06 18.47,19.17 2.69,-2.59 4.71,-5.45 4.71,-9.54z"/>
   <path class="fil15" d="M733.87 1110.59c-1.23,1.64 -1.52,4.78 -1.58,6.86l-4.46 0c-0.25,-4.24 0.71,-7.23 -1,-8.84 0.06,2.83 -0.45,6.72 0.68,9.28l5.04 0.17 1.32 -7.47z"/>
  </g>
 </g>
</svg>
